<svg width="13" height="13" viewBox="0 0 13 13" fill="none" xmlns="http://www.w3.org/2000/svg">
<path d="M6.5 0C10.088 0 13 2.912 13 6.5C13 10.088 10.088 13 6.5 13C2.912 13 0 10.088 0 6.5C0 2.912 2.912 0 6.5 0ZM6.5 1.3C3.627 1.3 1.3 3.627 1.3 6.5C1.3 9.373 3.627 11.7 6.5 11.7C9.373 11.7 11.7 9.373 11.7 6.5C11.7 3.627 9.373 1.3 6.5 1.3ZM6.5 3.25C7.683 3.25 8.71845 3.88245 9.2872 4.8282L8.1731 5.49705C7.99777 5.20471 7.74887 4.96344 7.45121 4.79729C7.15355 4.63115 6.81754 4.54593 6.47668 4.55015C6.13581 4.55437 5.80201 4.64787 5.50856 4.82132C5.2151 4.99478 4.97224 5.24214 4.8042 5.53873C4.63615 5.83532 4.54879 6.17078 4.55083 6.51166C4.55287 6.85254 4.64424 7.18694 4.81582 7.4815C4.9874 7.77605 5.23319 8.02049 5.52871 8.19042C5.82422 8.36036 6.15911 8.44986 6.5 8.45C6.83679 8.45022 7.16788 8.36315 7.46099 8.19729C7.7541 8.03142 7.99923 7.79242 8.17245 7.5036L9.2872 8.1718C8.92191 8.7819 8.36657 9.25533 7.70635 9.51948C7.04613 9.78362 6.31749 9.82389 5.63218 9.63412C4.94688 9.44435 4.34274 9.03501 3.91244 8.46888C3.48214 7.90275 3.24943 7.2111 3.25 6.5C3.25 4.706 4.706 3.25 6.5 3.25Z" fill="#E5E5E5"/>
</svg>
