<svg width="22" height="22" viewBox="0 0 22 22" fill="none" xmlns="http://www.w3.org/2000/svg">
<path d="M19.6429 0H2.35714C1.73199 0 1.13244 0.24693 0.690391 0.686469C0.248341 1.12601 0 1.72215 0 2.34375L0 19.5312C0 20.1529 0.248341 20.749 0.690391 21.1885C1.13244 21.6281 1.73199 21.875 2.35714 21.875H9.0971V14.438H6.00335V10.9375H9.0971V8.26953C9.0971 5.23486 10.9141 3.55859 13.697 3.55859C15.0297 3.55859 16.4234 3.79492 16.4234 3.79492V6.77344H14.8878C13.3748 6.77344 12.9029 7.70703 12.9029 8.66455V10.9375H16.2805L15.7403 14.438H12.9029V21.875H19.6429C20.268 21.875 20.8676 21.6281 21.3096 21.1885C21.7517 20.749 22 20.1529 22 19.5312V2.34375C22 1.72215 21.7517 1.12601 21.3096 0.686469C20.8676 0.24693 20.268 0 19.6429 0Z" fill="#E5E5E5"/>
</svg>
