<svg width="246" height="23" viewBox="0 0 246 23" fill="none" xmlns="http://www.w3.org/2000/svg">
<path d="M234.991 5.34131C233.493 5.34131 232.056 5.93647 230.996 6.99588C229.937 8.05528 229.342 9.49213 229.342 10.9904C229.342 12.4886 229.937 13.9254 230.996 14.9848C232.056 16.0442 233.493 16.6394 234.991 16.6394C236.489 16.6394 237.926 16.0442 238.985 14.9848C240.045 13.9254 240.64 12.4886 240.64 10.9904C240.64 9.49213 240.045 8.05528 238.985 6.99588C237.926 5.93647 236.489 5.34131 234.991 5.34131ZM234.991 14.6591C234.018 14.6591 233.084 14.2724 232.396 13.5842C231.708 12.8959 231.321 11.9625 231.321 10.9891C231.321 10.0158 231.708 9.08235 232.396 8.3941C233.084 7.70586 234.018 7.31921 234.991 7.31921C235.964 7.31921 236.898 7.70586 237.586 8.3941C238.274 9.08235 238.661 10.0158 238.661 10.9891C238.661 11.9625 238.274 12.8959 237.586 13.5842C236.898 14.2724 235.964 14.6591 234.991 14.6591Z" fill="#E5E5E5"/>
<path d="M240.864 6.45035C241.591 6.45035 242.181 5.86072 242.181 5.13338C242.181 4.40603 241.591 3.81641 240.864 3.81641C240.137 3.81641 239.547 4.40603 239.547 5.13338C239.547 5.86072 240.137 6.45035 240.864 6.45035Z" fill="#E5E5E5"/>
<path d="M245.417 3.79454C245.134 3.06419 244.702 2.40094 244.148 1.84725C243.594 1.29356 242.931 0.861615 242.201 0.579076C241.346 0.25821 240.443 0.0847126 239.53 0.0659706C238.354 0.01466 237.981 0 234.998 0C232.014 0 231.632 -1.2288e-07 230.465 0.0659706C229.553 0.0837543 228.651 0.257287 227.797 0.579076C227.066 0.861286 226.403 1.29311 225.849 1.84685C225.295 2.40058 224.863 3.064 224.58 3.79454C224.259 4.64924 224.086 5.55233 224.068 6.46513C224.016 7.64038 224 8.01299 224 10.9976C224 13.9809 224 14.3608 224.068 15.53C224.087 16.4438 224.259 17.3454 224.58 18.2018C224.864 18.9321 225.296 19.5952 225.85 20.1489C226.404 20.7025 227.068 21.1345 227.798 21.4173C228.65 21.751 229.553 21.9369 230.468 21.967C231.644 22.0183 232.017 22.0342 235 22.0342C237.983 22.0342 238.366 22.0342 239.532 21.967C240.445 21.9485 241.348 21.7754 242.203 21.4551C242.933 21.1719 243.596 20.7396 244.15 20.1858C244.704 19.6319 245.137 18.9687 245.42 18.2384C245.741 17.3833 245.913 16.4817 245.932 15.5679C245.984 14.3926 246 14.02 246 11.0354C246 8.05087 246 7.67215 245.932 6.503C245.917 5.5773 245.743 4.66101 245.417 3.79454ZM243.929 15.4396C243.921 16.1436 243.793 16.8411 243.549 17.5018C243.366 17.9768 243.085 18.4083 242.725 18.7683C242.365 19.1283 241.933 19.4089 241.458 19.5921C240.804 19.8345 240.114 19.963 239.418 19.972C238.257 20.0258 237.93 20.0392 234.954 20.0392C231.975 20.0392 231.671 20.0392 230.488 19.972C229.792 19.9635 229.102 19.835 228.449 19.5921C227.973 19.41 227.539 19.1299 227.177 18.7698C226.816 18.4098 226.534 17.9778 226.349 17.5018C226.109 16.8482 225.981 16.159 225.969 15.4628C225.917 14.3022 225.905 13.9748 225.905 10.9988C225.905 8.02155 225.905 7.71735 225.969 6.53354C225.977 5.82988 226.106 5.13279 226.349 4.47257C226.722 3.50866 227.485 2.75 228.449 2.38105C229.102 2.13933 229.792 2.01084 230.488 2.00111C231.65 1.94858 231.976 1.93392 234.954 1.93392C237.931 1.93392 238.236 1.93392 239.418 2.00111C240.114 2.00949 240.805 2.13803 241.458 2.38105C241.933 2.56464 242.364 2.84554 242.725 3.20572C243.085 3.56591 243.366 3.99742 243.549 4.47257C243.789 5.1261 243.918 5.81539 243.929 6.51155C243.982 7.67337 243.995 7.99956 243.995 10.9768C243.995 13.9528 243.995 14.2729 243.943 15.4408H243.929V15.4396Z" fill="#E5E5E5"/>
<path d="M73.6 12.025C73.4 11.925 72.1 11.325 71.9 11.225C71.7 11.125 71.5 11.125 71.3 11.325C71.1 11.525 70.7 12.125 70.5 12.325C70.4 12.525 70.2 12.525 70 12.425C69.3 12.125 68.6 11.725 68 11.225C67.5 10.725 67 10.125 66.6 9.525C66.5 9.325 66.6 9.125 66.7 9.025C66.8 8.925 66.9 8.725 67.1 8.625C67.2 8.525 67.3 8.325 67.3 8.225C67.4 8.125 67.4 7.925 67.3 7.825C67.2 7.725 66.7 6.525 66.5 6.025C66.4 5.325 66.2 5.325 66 5.325H65.5C65.3 5.325 65 5.525 64.9 5.625C64.3 6.225 64 6.925 64 7.725C64.1 8.625 64.4 9.525 65 10.325C66.1 11.925 67.5 13.225 69.2 14.025C69.7 14.225 70.1 14.425 70.6 14.525C71.1 14.725 71.6 14.725 72.2 14.625C72.9 14.525 73.5 14.025 73.9 13.425C74.1 13.025 74.1 12.625 74 12.225L73.6 12.025ZM76.1 2.925C72.2 -0.975 65.9 -0.975 62 2.925C58.8 6.125 58.2 11.025 60.4 14.925L59 20.025L64.3 18.625C65.8 19.425 67.4 19.825 69 19.825C74.5 19.825 78.9 15.425 78.9 9.925C79 7.325 77.9 4.825 76.1 2.925ZM73.4 16.925C72.1 17.725 70.6 18.225 69 18.225C67.5 18.225 66.1 17.825 64.8 17.125L64.5 16.925L61.4 17.725L62.2 14.725L62 14.425C59.6 10.425 60.8 5.425 64.7 2.925C68.6 0.425 73.6 1.725 76 5.525C78.4 9.425 77.3 14.525 73.4 16.925Z" fill="#E5E5E5"/>
<path d="M132.643 0H115.357C114.732 0 114.132 0.24693 113.69 0.686469C113.248 1.12601 113 1.72215 113 2.34375V19.5312C113 20.1529 113.248 20.749 113.69 21.1885C114.132 21.6281 114.732 21.875 115.357 21.875H122.097V14.438H119.003V10.9375H122.097V8.26953C122.097 5.23486 123.914 3.55859 126.697 3.55859C128.03 3.55859 129.423 3.79492 129.423 3.79492V6.77344H127.888C126.375 6.77344 125.903 7.70703 125.903 8.66455V10.9375H129.28L128.74 14.438H125.903V21.875H132.643C133.268 21.875 133.868 21.6281 134.31 21.1885C134.752 20.749 135 20.1529 135 19.5312V2.34375C135 1.72215 134.752 1.12601 134.31 0.686469C133.868 0.24693 133.268 0 132.643 0Z" fill="#E5E5E5"/>
<path d="M25 2.36906C24.3038 3.38888 23.4497 4.25824 22.4377 4.97712C22.4477 5.16992 22.4527 5.38783 22.4527 5.63085C22.4527 6.98116 22.2528 8.3331 21.853 9.68667C21.4532 11.0403 20.8425 12.3359 20.0209 13.5735C19.1993 14.8112 18.2207 15.9076 17.0849 16.8629C15.9492 17.8181 14.584 18.5798 12.9893 19.1479C11.3946 19.716 9.68557 20 7.86212 20C5.01631 20 2.39561 19.2434 0 17.7301C0.425192 17.7767 0.832987 17.8 1.22338 17.8C3.60082 17.8 5.72426 17.0789 7.59369 15.6365C6.48519 15.6165 5.49245 15.2804 4.61546 14.6283C3.73848 13.9762 3.13495 13.143 2.8049 12.1286C3.13114 12.1898 3.45312 12.2204 3.77086 12.2204C4.22822 12.2204 4.67825 12.1616 5.12097 12.0441C3.93799 11.8108 2.95662 11.2305 2.17684 10.3033C1.39708 9.37614 1.00721 8.30599 1.00721 7.09287V7.03035C1.73332 7.4263 2.50783 7.63691 3.33075 7.66219C2.62997 7.20209 2.07435 6.60209 1.6639 5.86221C1.25343 5.12233 1.04819 4.32166 1.04819 3.46018C1.04819 2.5516 1.27937 1.70555 1.74172 0.922019C3.02818 2.47678 4.587 3.71939 6.41817 4.64986C8.24937 5.58033 10.2139 6.09709 12.3117 6.20013C12.2223 5.83289 12.1774 5.44966 12.1773 5.05044C12.1773 3.65649 12.6782 2.46626 13.6799 1.47976C14.6817 0.493253 15.8903 0 17.3057 0C18.7876 0 20.0358 0.531406 21.0503 1.59422C22.2095 1.3681 23.2948 0.959106 24.3063 0.36724C23.9166 1.57511 23.1657 2.50689 22.0535 3.1626C23.0757 3.04297 24.0579 2.77846 25 2.36906Z" fill="#E5E5E5"/>
<path d="M173.311 0C170.94 0 169 1.94032 169 4.31118V17.6895C169 20.0603 170.94 22 173.311 22H186.69C189.06 22 191 20.0604 191 17.6895V4.31118C191 1.94037 189.06 0 186.69 0H173.311ZM174.396 3.63044C175.532 3.63044 176.232 4.3767 176.254 5.35765C176.254 6.31694 175.532 7.08417 174.374 7.08417H174.352C173.237 7.08417 172.516 6.31698 172.516 5.35765C172.516 4.37672 173.259 3.63044 174.396 3.63044ZM184.192 8.21527C186.378 8.21527 188.017 9.64417 188.017 12.7148V18.4472H184.694V13.0992C184.694 11.7552 184.213 10.8384 183.011 10.8384C182.093 10.8384 181.546 11.4564 181.306 12.0533C181.218 12.2669 181.196 12.5652 181.196 12.864V18.4472H177.874C177.874 18.4472 177.918 9.38776 177.874 8.44971H181.197V9.86546C181.639 9.18426 182.428 8.21527 184.192 8.21527ZM172.712 8.45044H176.035V18.4473H172.712V8.45044Z" fill="#E5E5E5"/>
</svg>
