<svg width="22" height="23" viewBox="0 0 22 23" fill="none" xmlns="http://www.w3.org/2000/svg">
<path d="M10.9908 5.34082C9.49262 5.34082 8.05577 5.93599 6.99636 6.99539C5.93696 8.05479 5.3418 9.49165 5.3418 10.9899C5.3418 12.4881 5.93696 13.9249 6.99636 14.9843C8.05577 16.0437 9.49262 16.6389 10.9908 16.6389C12.4891 16.6389 13.9259 16.0437 14.9853 14.9843C16.0447 13.9249 16.6399 12.4881 16.6399 10.9899C16.6399 9.49165 16.0447 8.05479 14.9853 6.99539C13.9259 5.93599 12.4891 5.34082 10.9908 5.34082ZM10.9908 14.6586C10.0175 14.6586 9.08406 14.2719 8.39581 13.5837C7.70757 12.8954 7.32092 11.962 7.32092 10.9886C7.32092 10.0153 7.70757 9.08186 8.39581 8.39362C9.08406 7.70537 10.0175 7.31872 10.9908 7.31872C11.9642 7.31872 12.8976 7.70537 13.5859 8.39362C14.2741 9.08186 14.6608 10.0153 14.6608 10.9886C14.6608 11.962 14.2741 12.8954 13.5859 13.5837C12.8976 14.2719 11.9642 14.6586 10.9908 14.6586Z" fill="#E5E5E5"/>
<path d="M16.8638 6.45035C17.5912 6.45035 18.1808 5.86072 18.1808 5.13338C18.1808 4.40603 17.5912 3.81641 16.8638 3.81641C16.1365 3.81641 15.5469 4.40603 15.5469 5.13338C15.5469 5.86072 16.1365 6.45035 16.8638 6.45035Z" fill="#E5E5E5"/>
<path d="M21.4173 3.79454C21.1344 3.06419 20.7022 2.40094 20.1483 1.84725C19.5944 1.29356 18.931 0.861615 18.2006 0.579076C17.3458 0.25821 16.4428 0.0847126 15.53 0.0659706C14.3535 0.01466 13.9809 0 10.9976 0C8.01422 0 7.63183 -1.2288e-07 6.46513 0.0659706C5.55301 0.0837543 4.65064 0.257287 3.79698 0.579076C3.06634 0.861286 2.40276 1.29311 1.84881 1.84685C1.29486 2.40058 0.862785 3.064 0.580298 3.79454C0.259368 4.64924 0.0862683 5.55233 0.068414 6.46513C0.0158818 7.64038 0 8.01299 0 10.9976C0 13.9809 -9.10222e-09 14.3608 0.068414 15.53C0.0867392 16.4438 0.258996 17.3454 0.580298 18.2018C0.863578 18.9321 1.29607 19.5952 1.85016 20.1489C2.40424 20.7025 3.06771 21.1345 3.7982 21.4173C4.65024 21.751 5.55299 21.9369 6.46757 21.967C7.64405 22.0183 8.01666 22.0342 11 22.0342C13.9833 22.0342 14.3657 22.0342 15.5324 21.967C16.4452 21.9485 17.3481 21.7754 18.203 21.4551C18.9333 21.1719 19.5965 20.7396 20.1503 20.1858C20.7042 19.6319 21.1365 18.9687 21.4197 18.2384C21.741 17.3833 21.9133 16.4817 21.9316 15.5679C21.9841 14.3926 22 14.02 22 11.0354C22 8.05087 22 7.67215 21.9316 6.503C21.9174 5.5773 21.7434 4.66101 21.4173 3.79454ZM19.9293 15.4396C19.9214 16.1436 19.7929 16.8411 19.5493 17.5018C19.3658 17.9768 19.085 18.4083 18.7248 18.7683C18.3646 19.1283 17.933 19.4089 17.4578 19.5921C16.8045 19.8345 16.1144 19.963 15.4176 19.972C14.257 20.0258 13.9296 20.0392 10.9536 20.0392C7.97512 20.0392 7.67092 20.0392 6.48834 19.972C5.79189 19.9635 5.10213 19.835 4.44936 19.5921C3.97252 19.41 3.53921 19.1299 3.17745 18.7698C2.8157 18.4098 2.53356 17.9778 2.34929 17.5018C2.10916 16.8482 1.98072 16.159 1.96935 15.4628C1.91681 14.3022 1.9046 13.9748 1.9046 10.9988C1.9046 8.02155 1.9046 7.71735 1.96935 6.53354C1.97724 5.82988 2.10575 5.13279 2.34929 4.47257C2.7219 3.50866 3.48545 2.75 4.44936 2.38105C5.10245 2.13933 5.79201 2.01084 6.48834 2.00111C7.65016 1.94858 7.97635 1.93392 10.9536 1.93392C13.9308 1.93392 14.2362 1.93392 15.4176 2.00111C16.1145 2.00949 16.8046 2.13803 17.4578 2.38105C17.9329 2.56464 18.3645 2.84554 18.7246 3.20572C19.0848 3.56591 19.3657 3.99742 19.5493 4.47257C19.7894 5.1261 19.9179 5.81539 19.9293 6.51155C19.9818 7.67337 19.9952 7.99956 19.9952 10.9768C19.9952 13.9528 19.9952 14.2729 19.9427 15.4408H19.9293V15.4396Z" fill="#E5E5E5"/>
</svg>
