<svg width="25" height="20" viewBox="0 0 25 20" fill="none" xmlns="http://www.w3.org/2000/svg">
<path d="M25 2.36906C24.3038 3.38888 23.4497 4.25824 22.4377 4.97712C22.4477 5.16992 22.4527 5.38783 22.4527 5.63085C22.4527 6.98116 22.2528 8.3331 21.853 9.68667C21.4532 11.0403 20.8425 12.3359 20.0209 13.5735C19.1993 14.8112 18.2207 15.9076 17.0849 16.8629C15.9492 17.8181 14.584 18.5798 12.9893 19.1479C11.3946 19.716 9.68557 20 7.86212 20C5.01631 20 2.39561 19.2434 0 17.7301C0.425192 17.7767 0.832987 17.8 1.22338 17.8C3.60082 17.8 5.72426 17.0789 7.59369 15.6365C6.48519 15.6165 5.49245 15.2804 4.61546 14.6283C3.73848 13.9762 3.13495 13.143 2.8049 12.1286C3.13114 12.1898 3.45312 12.2204 3.77086 12.2204C4.22822 12.2204 4.67825 12.1616 5.12097 12.0441C3.93799 11.8108 2.95662 11.2305 2.17684 10.3033C1.39708 9.37614 1.00721 8.30599 1.00721 7.09287V7.03035C1.73332 7.4263 2.50783 7.63691 3.33075 7.66219C2.62997 7.20209 2.07435 6.60209 1.6639 5.86221C1.25343 5.12233 1.04819 4.32166 1.04819 3.46018C1.04819 2.5516 1.27937 1.70555 1.74172 0.922019C3.02818 2.47678 4.587 3.71939 6.41817 4.64986C8.24937 5.58033 10.2139 6.09709 12.3117 6.20013C12.2223 5.83289 12.1774 5.44966 12.1773 5.05044C12.1773 3.65649 12.6782 2.46626 13.6799 1.47976C14.6817 0.493253 15.8903 0 17.3057 0C18.7876 0 20.0358 0.531406 21.0503 1.59422C22.2095 1.3681 23.2948 0.959106 24.3063 0.36724C23.9166 1.57511 23.1657 2.50689 22.0535 3.1626C23.0757 3.04297 24.0579 2.77846 25 2.36906Z" fill="#E5E5E5"/>
</svg>
